<svg width="131" height="25" viewBox="0 0 131 25" fill="none" xmlns="http://www.w3.org/2000/svg">
<path d="M37.1223 1.23987C36.7767 1.92724 36.7767 2.5917 36.7767 3.27907V11.8712C36.7767 11.8712 41.4083 5.89108 42.4683 4.47051C43.2748 3.41654 44.2657 1.92724 44.2657 1.23987H59.3819C58.345 1.92724 57.1928 3.1645 56.2481 4.31012C55.4185 5.31827 50.7177 11.0235 50.7177 11.0235C50.7177 11.0235 57.6998 21.5861 58.5985 22.9379C59.1054 23.6711 59.6584 24.3585 60.3036 24.9771H42.9061C42.9061 24.2897 42.2379 22.8921 41.5005 21.7923C40.7631 20.6925 36.7767 14.6665 36.7767 14.6665V22.9379C36.7767 23.6253 36.7767 24.2897 37.1223 24.9771H22.6283C22.9739 24.2897 22.9739 23.6253 22.9739 22.9379V3.27907C22.9739 2.5917 22.9739 1.92724 22.6283 1.23987H37.1223ZM90.7896 1.23987H62.8153C63.161 1.92724 63.161 2.5917 63.161 3.27907V22.9379C63.161 23.6253 63.161 24.2897 62.8153 24.9771H90.7896V18.4012C90.0983 18.7449 89.4301 18.7449 88.7388 18.7449H76.9638V15.6288H88.2779V10.611H76.9638V7.47203H88.7388C89.4301 7.47203 90.0983 7.47203 90.7896 7.79281V1.23987ZM129.548 22.9379C129.778 23.694 130.17 24.3814 130.677 24.9771H115.515C115.584 24.2897 115.33 23.6253 115.054 22.9379C115.054 22.9379 114.823 22.388 114.501 21.5861L114.363 21.2424H105.629L105.491 21.609C105.491 21.609 105.238 22.2734 105.007 22.9608C104.777 23.6482 104.523 24.3126 104.615 25H92.6561C93.14 24.4043 93.5087 23.7169 93.7391 22.9608L100.905 3.30198C101.159 2.61461 101.412 1.95015 101.32 1.26278H121.529C121.345 1.95015 121.713 2.61461 121.967 3.30198C122.566 4.79128 129.041 21.609 129.548 22.9379ZM112.45 16.2246L110.33 10.7256C110.146 10.2215 109.984 9.69453 109.869 9.16755C109.777 9.69453 109.639 10.2215 109.454 10.7256C109.385 10.9547 108.487 13.3605 107.45 16.2246H112.45ZM15.4158 3.27907C15.4158 2.5917 15.4158 1.92724 15.7614 1.23987H0C0.345646 1.92724 0.345646 2.5917 0.345646 3.27907V22.9379C0.345646 23.6253 0.345646 24.2897 0 24.9771H15.7614C15.4158 24.2897 15.4158 23.6253 15.4158 22.9379V3.27907ZM124.709 3.11868C124.663 4.83711 126.022 6.28059 127.774 6.32641C129.502 6.37222 130.954 5.02041 131 3.27907C131 3.23326 131 3.1645 131 3.11868C131.023 1.42316 129.686 0.0255078 127.981 0.00259481C127.935 0.00259481 127.912 0.00259481 127.866 0.00259481C126.184 -0.066159 124.778 1.23987 124.732 2.91247C124.686 2.98122 124.686 3.04995 124.709 3.11868ZM130.354 3.11868C130.401 4.49342 129.294 5.66195 127.912 5.68486C126.529 5.73068 125.354 4.6309 125.331 3.25615C125.331 3.21034 125.331 3.1645 125.331 3.09577C125.285 1.76685 126.322 0.64414 127.658 0.598321C127.728 0.598321 127.774 0.598321 127.843 0.598321C129.202 0.575379 130.331 1.65229 130.354 3.00412C130.354 3.04993 130.354 3.09577 130.354 3.11868ZM129.387 4.99749H128.765L128.027 3.66858H127.221V4.99749H126.668V1.23987H128.073C128.741 1.26281 129.248 1.78976 129.248 2.45422C129.248 2.91247 128.995 3.32489 128.58 3.55402L129.387 4.99749ZM127.981 3.11868C128.35 3.14162 128.672 2.86665 128.672 2.50004C128.672 2.13345 128.419 1.81267 128.05 1.81267C128.027 1.81267 128.004 1.81267 127.981 1.81267H127.221V3.14159H127.981" fill="#FFDB00"/>
</svg>
